<svg xmlns="http://www.w3.org/2000/svg" xmlns:xlink="http://www.w3.org/1999/xlink" width="1920" zoomAndPan="magnify" viewBox="0 0 1440 809.999993" height="1080" preserveAspectRatio="xMidYMid meet" version="1.0"><path fill="#e9cce9" d="M 390.15625 610.097656 C 409.660156 657.523438 455.242188 679.957031 484.378906 694.292969 C 599.214844 750.804688 773.679688 744.171875 899.277344 641.085938 C 928.664062 616.960938 1073.53125 490.578125 1039.820312 319.441406 C 1010.011719 168.15625 860.050781 80.394531 733.75 68.734375 C 629.117188 59.070312 492.46875 97.261719 444.167969 189.554688 C 413.796875 247.589844 450.285156 266.015625 425.441406 397.519531 C 403.9375 511.335938 366.300781 552.085938 390.15625 610.097656 " fill-opacity="1" fill-rule="nonzero"/><path fill="#9c88db" d="M 822.726562 426.113281 L 697.289062 426.898438 C 696.476562 426.898438 696.210938 427.652344 696.210938 428.378906 L 696.210938 535.109375 C 696.210938 545.324219 624.941406 571.875 624.246094 570.523438 L 624.160156 581.820312 C 624.15625 583.921875 626.003906 585.789062 628.359375 585.789062 L 629.929688 585.789062 C 629.941406 585.789062 629.949219 585.789062 629.960938 585.789062 L 735.128906 585.789062 C 740.011719 585.789062 744.828125 584.695312 749.25 582.847656 L 807.074219 558.496094 C 817.484375 554.113281 824.050781 544.699219 824.050781 534.429688 L 824.050781 427.59375 C 824.050781 426.867188 823.542969 426.113281 822.726562 426.113281 " fill-opacity="1" fill-rule="nonzero"/><path fill="#ffffff" d="M 683.507812 420.683594 L 683.507812 527.433594 C 683.507812 537.957031 676.734375 547.542969 666.097656 552.089844 L 627.089844 568.738281 C 624.539062 569.828125 625.410156 573.238281 628.234375 573.238281 L 735.410156 573.238281 C 740.230469 573.238281 744.988281 572.289062 749.347656 570.449219 L 792.566406 552.253906 C 803.285156 547.738281 810.125 538.113281 810.125 527.539062 L 810.125 420.683594 C 810.125 420.246094 809.730469 419.894531 809.238281 419.894531 L 684.394531 419.894531 C 683.902344 419.894531 683.507812 420.246094 683.507812 420.683594 " fill-opacity="1" fill-rule="nonzero"/><path fill="#000000" d="M 809.238281 421.089844 L 809.246094 421.089844 Z M 684.707031 421.089844 L 684.707031 527.433594 C 684.707031 538.375 677.582031 548.484375 666.566406 553.1875 L 627.554688 569.835938 C 626.71875 570.195312 626.742188 570.808594 626.792969 571.050781 C 626.886719 571.507812 627.320312 572.039062 628.234375 572.039062 L 735.410156 572.039062 C 740.039062 572.039062 744.699219 571.113281 748.882812 569.351562 L 792.101562 551.148438 C 802.324219 546.847656 808.925781 537.578125 808.925781 527.539062 L 808.925781 421.089844 Z M 735.410156 574.433594 L 628.234375 574.433594 C 626.355469 574.433594 624.800781 573.238281 624.449219 571.527344 C 624.117188 569.898438 624.984375 568.332031 626.621094 567.636719 L 665.625 550.988281 C 675.761719 546.65625 682.308594 537.414062 682.308594 527.433594 L 682.308594 420.683594 C 682.308594 419.585938 683.246094 418.695312 684.394531 418.695312 L 809.238281 418.695312 C 810.386719 418.695312 811.324219 419.585938 811.324219 420.683594 L 811.324219 527.539062 C 811.324219 538.542969 804.144531 548.679688 793.03125 553.359375 L 749.8125 571.554688 C 745.335938 573.441406 740.355469 574.433594 735.410156 574.433594 " fill-opacity="1" fill-rule="nonzero"/><path fill="#794682" d="M 449.03125 481.859375 L 989.691406 483.074219 C 994.425781 483.074219 999.140625 479.515625 999.746094 474.8125 L 1043.675781 136.488281 C 1044.726562 128.289062 1038.378906 120.132812 1030.222656 120.339844 L 495.828125 123.164062 L 449.03125 481.859375 " fill-opacity="1" fill-rule="nonzero"/><path fill="#9c88db" d="M 1008.988281 122.265625 C 1018.289062 122.265625 1026.6875 131.691406 1025.496094 140.941406 L 982.84375 473.988281 C 982.238281 478.691406 977.203125 482.675781 972.476562 482.675781 L 441.382812 481.808594 C 435.710938 481.808594 431.921875 477.101562 432.648438 471.460938 L 476.816406 132.238281 C 477.421875 127.539062 480.53125 122.265625 485.261719 122.265625 L 1008.988281 122.265625 " fill-opacity="1" fill-rule="nonzero"/><path fill="#000000" d="M 972.476562 483.132812 L 580.363281 482.496094 C 579.699219 482.492188 579.164062 481.957031 579.167969 481.292969 C 579.167969 480.636719 579.703125 480.097656 580.363281 480.097656 C 580.363281 480.097656 580.367188 480.097656 580.367188 480.097656 L 972.480469 480.738281 C 976.765625 480.738281 981.144531 477.09375 981.660156 473.097656 L 1024.308594 140.054688 C 1024.828125 136.015625 1023.378906 131.707031 1020.328125 128.238281 C 1017.242188 124.734375 1013.109375 122.722656 1008.988281 122.722656 L 485.261719 122.722656 C 481.4375 122.722656 478.570312 127.261719 478.003906 131.648438 L 433.835938 470.878906 C 433.511719 473.371094 434.164062 475.691406 435.664062 477.394531 C 437.070312 478.992188 439.101562 479.875 441.382812 479.875 L 473.636719 479.925781 C 474.296875 479.925781 474.835938 480.464844 474.832031 481.125 C 474.832031 481.789062 474.296875 482.320312 473.636719 482.320312 C 473.632812 482.320312 473.632812 482.320312 473.632812 482.320312 L 441.382812 482.265625 C 438.402344 482.265625 435.730469 481.101562 433.867188 478.980469 C 431.933594 476.777344 431.054688 473.714844 431.460938 470.566406 L 475.628906 131.34375 C 476.320312 126.003906 479.929688 120.324219 485.261719 120.324219 L 1008.988281 120.324219 C 1013.800781 120.324219 1018.582031 122.632812 1022.121094 126.65625 C 1025.632812 130.644531 1027.292969 135.636719 1026.6875 140.359375 L 984.03125 473.402344 C 983.367188 478.582031 977.964844 483.132812 972.476562 483.132812 " fill-opacity="1" fill-rule="nonzero"/><path fill="#e9cce9" d="M 993.574219 135.949219 C 1002.132812 135.949219 1009.859375 144.621094 1008.765625 153.132812 L 969.519531 459.523438 C 968.964844 463.851562 964.335938 467.515625 959.988281 467.515625 L 458.195312 466.71875 C 452.976562 466.71875 449.492188 462.390625 450.160156 457.199219 L 490.792969 145.121094 C 491.351562 140.796875 494.210938 135.949219 498.5625 135.949219 L 993.574219 135.949219 " fill-opacity="1" fill-rule="nonzero"/><path fill="#ffffff" d="M 940.8125 178.234375 L 736.839844 178.234375 L 738.214844 168.007812 L 942.183594 168.007812 L 940.8125 178.234375 " fill-opacity="1" fill-rule="nonzero"/><path fill="#9c88db" d="M 984.828125 195.097656 L 777.011719 195.097656 L 778.386719 184.871094 L 986.203125 184.871094 L 984.828125 195.097656 " fill-opacity="1" fill-rule="nonzero"/><path fill="#ffffff" d="M 957.503906 211.957031 L 850.085938 211.957031 L 851.457031 201.730469 L 958.875 201.730469 L 957.503906 211.957031 " fill-opacity="1" fill-rule="nonzero"/><path fill="#ffffff" d="M 922.679688 313.121094 L 718.707031 313.121094 L 720.082031 302.894531 L 924.054688 302.894531 L 922.679688 313.121094 " fill-opacity="1" fill-rule="nonzero"/><path fill="#9c88db" d="M 966.703125 329.976562 L 758.878906 329.976562 L 760.25 319.746094 L 968.074219 319.746094 L 966.703125 329.976562 " fill-opacity="1" fill-rule="nonzero"/><path fill="#9c88db" d="M 964.429688 346.839844 L 831.949219 346.839844 L 833.328125 336.613281 L 965.804688 336.613281 L 964.429688 346.839844 " fill-opacity="1" fill-rule="nonzero"/><path fill="#9c88db" d="M 877.277344 362.992188 L 753.671875 362.992188 L 755.046875 352.765625 L 878.652344 352.765625 L 877.277344 362.992188 " fill-opacity="1" fill-rule="nonzero"/><path fill="#9c88db" d="M 934.011719 228.816406 L 730.039062 228.816406 L 731.410156 218.589844 L 935.386719 218.589844 L 934.011719 228.816406 " fill-opacity="1" fill-rule="nonzero"/><path fill="#9c88db" d="M 978.03125 245.675781 L 770.210938 245.675781 L 771.585938 235.445312 L 979.40625 235.445312 L 978.03125 245.675781 " fill-opacity="1" fill-rule="nonzero"/><path fill="#ffffff" d="M 923.378906 279.394531 L 841.019531 279.394531 L 842.398438 269.171875 L 924.753906 269.171875 L 923.378906 279.394531 " fill-opacity="1" fill-rule="nonzero"/><path fill="#9c88db" d="M 945.742188 296.242188 L 863.378906 296.242188 L 864.757812 286.015625 L 947.113281 286.015625 L 945.742188 296.242188 " fill-opacity="1" fill-rule="nonzero"/><path fill="#9c88db" d="M 975.765625 262.535156 L 843.289062 262.535156 L 844.65625 252.308594 L 977.140625 252.308594 L 975.765625 262.535156 " fill-opacity="1" fill-rule="nonzero"/><path fill="#ffffff" d="M 913.617188 380.558594 L 709.644531 380.558594 L 711.015625 370.332031 L 914.988281 370.332031 L 913.617188 380.558594 " fill-opacity="1" fill-rule="nonzero"/><path fill="#9c88db" d="M 950.949219 397.417969 L 749.816406 397.417969 L 751.183594 387.191406 L 952.324219 387.191406 L 950.949219 397.417969 " fill-opacity="1" fill-rule="nonzero"/><path fill="#9c88db" d="M 955.367188 414.277344 L 822.886719 414.277344 L 824.261719 404.054688 L 956.738281 404.054688 L 955.367188 414.277344 " fill-opacity="1" fill-rule="nonzero"/><path fill="#ffffff" d="M 906.816406 431.136719 L 702.84375 431.136719 L 704.214844 420.914062 L 908.191406 420.914062 L 906.816406 431.136719 " fill-opacity="1" fill-rule="nonzero"/><path fill="#9c88db" d="M 950.828125 448 L 743.007812 448 L 744.386719 437.773438 L 952.203125 437.773438 L 950.828125 448 " fill-opacity="1" fill-rule="nonzero"/><path fill="#9c88db" d="M 704.023438 296.054688 L 684.152344 296.054688 L 685.472656 286.230469 L 705.34375 286.230469 L 704.023438 296.054688 " fill-opacity="1" fill-rule="nonzero"/><path fill="#9c88db" d="M 720.605469 178.234375 L 699.898438 178.234375 L 701.269531 168.007812 L 721.980469 168.007812 L 720.605469 178.234375 " fill-opacity="1" fill-rule="nonzero"/><path fill="#9c88db" d="M 722.691406 162.734375 L 701.980469 162.734375 L 703.359375 152.511719 L 724.0625 152.511719 L 722.691406 162.734375 " fill-opacity="1" fill-rule="nonzero"/><path fill="#9c88db" d="M 718.179688 195.097656 L 697.628906 195.097656 L 699.003906 184.871094 L 719.554688 184.871094 L 718.179688 195.097656 " fill-opacity="1" fill-rule="nonzero"/><path fill="#9c88db" d="M 715.21875 211.957031 L 695.707031 211.957031 L 697.085938 201.730469 L 716.59375 201.730469 L 715.21875 211.957031 " fill-opacity="1" fill-rule="nonzero"/><path fill="#9c88db" d="M 713.054688 228.816406 L 693.199219 228.816406 L 694.578125 218.589844 L 714.429688 218.589844 L 713.054688 228.816406 " fill-opacity="1" fill-rule="nonzero"/><path fill="#9c88db" d="M 710.683594 245.679688 L 690.832031 245.679688 L 692.203125 235.453125 L 712.058594 235.453125 L 710.683594 245.679688 " fill-opacity="1" fill-rule="nonzero"/><path fill="#9c88db" d="M 706.738281 278.71875 L 687.0625 278.71875 L 688.4375 268.496094 L 708.113281 268.496094 L 706.738281 278.71875 " fill-opacity="1" fill-rule="nonzero"/><path fill="#9c88db" d="M 708.503906 261.859375 L 689.695312 261.859375 L 691.070312 251.636719 L 709.878906 251.636719 L 708.503906 261.859375 " fill-opacity="1" fill-rule="nonzero"/><path fill="#9c88db" d="M 697.136719 347.269531 L 677.269531 347.269531 L 678.585938 337.445312 L 698.460938 337.445312 L 697.136719 347.269531 " fill-opacity="1" fill-rule="nonzero"/><path fill="#9c88db" d="M 699.855469 329.9375 L 680.175781 329.9375 L 681.554688 319.710938 L 701.226562 319.710938 L 699.855469 329.9375 " fill-opacity="1" fill-rule="nonzero"/><path fill="#9c88db" d="M 701.621094 313.074219 L 682.8125 313.074219 L 684.191406 302.847656 L 703 302.847656 L 701.621094 313.074219 " fill-opacity="1" fill-rule="nonzero"/><path fill="#9c88db" d="M 683.730469 447.003906 L 663.859375 447.003906 L 665.179688 437.179688 L 685.050781 437.179688 L 683.730469 447.003906 " fill-opacity="1" fill-rule="nonzero"/><path fill="#9c88db" d="M 694.925781 362.902344 L 675.421875 362.902344 L 676.792969 352.675781 L 696.296875 352.675781 L 694.925781 362.902344 " fill-opacity="1" fill-rule="nonzero"/><path fill="#9c88db" d="M 692.761719 379.761719 L 672.910156 379.761719 L 674.28125 369.539062 L 694.136719 369.539062 L 692.761719 379.761719 " fill-opacity="1" fill-rule="nonzero"/><path fill="#9c88db" d="M 690.390625 396.625 L 670.539062 396.625 L 671.910156 386.398438 L 691.765625 386.398438 L 690.390625 396.625 " fill-opacity="1" fill-rule="nonzero"/><path fill="#9c88db" d="M 686.445312 429.667969 L 666.769531 429.667969 L 668.144531 419.441406 L 687.824219 419.441406 L 686.445312 429.667969 " fill-opacity="1" fill-rule="nonzero"/><path fill="#9c88db" d="M 688.214844 412.804688 L 669.40625 412.804688 L 670.78125 402.582031 L 689.589844 402.582031 L 688.214844 412.804688 " fill-opacity="1" fill-rule="nonzero"/><path fill="#9c88db" d="M 615.289062 160.496094 L 517.101562 160.496094 L 518.421875 150.667969 L 616.609375 150.667969 L 615.289062 160.496094 " fill-opacity="1" fill-rule="nonzero"/><path fill="#ffffff" d="M 632.539062 177.558594 L 529.042969 177.558594 L 530.417969 167.335938 L 633.914062 167.335938 L 632.539062 177.558594 " fill-opacity="1" fill-rule="nonzero"/><path fill="#ffffff" d="M 659.59375 194.417969 L 539.011719 194.417969 L 540.386719 184.195312 L 660.96875 184.195312 L 659.59375 194.417969 " fill-opacity="1" fill-rule="nonzero"/><path fill="#ffffff" d="M 675.050781 211.28125 L 574.429688 211.28125 L 575.804688 201.054688 L 676.425781 201.054688 L 675.050781 211.28125 " fill-opacity="1" fill-rule="nonzero"/><path fill="#9c88db" d="M 578.496094 295.378906 L 498.96875 295.378906 L 500.285156 285.554688 L 579.816406 285.554688 L 578.496094 295.378906 " fill-opacity="1" fill-rule="nonzero"/><path fill="#ffffff" d="M 579.734375 312.441406 L 521.578125 312.441406 L 522.953125 302.214844 L 581.109375 302.214844 L 579.734375 312.441406 " fill-opacity="1" fill-rule="nonzero"/><path fill="#ffffff" d="M 600.558594 329.300781 L 544.886719 329.300781 L 546.261719 319.078125 L 601.933594 319.078125 L 600.558594 329.300781 " fill-opacity="1" fill-rule="nonzero"/><path fill="#ffffff" d="M 637.417969 346.160156 L 566.964844 346.160156 L 568.339844 335.9375 L 638.792969 335.9375 L 637.417969 346.160156 " fill-opacity="1" fill-rule="nonzero"/><path fill="#9c88db" d="M 580.386719 228.140625 L 509.28125 228.140625 L 510.65625 217.914062 L 581.761719 217.914062 L 580.386719 228.140625 " fill-opacity="1" fill-rule="nonzero"/><path fill="#ffffff" d="M 668.757812 245.003906 L 558.886719 245.003906 L 560.261719 234.777344 L 670.128906 234.777344 L 668.757812 245.003906 " fill-opacity="1" fill-rule="nonzero"/><path fill="#9c88db" d="M 576.746094 261.832031 L 505.640625 261.832031 L 507.015625 251.605469 L 578.121094 251.605469 L 576.746094 261.832031 " fill-opacity="1" fill-rule="nonzero"/><path fill="#ffffff" d="M 665.117188 278.695312 L 555.246094 278.695312 L 556.621094 268.464844 L 666.492188 268.464844 L 665.117188 278.695312 " fill-opacity="1" fill-rule="nonzero"/><path fill="#9c88db" d="M 578.3125 362.820312 L 489.902344 362.820312 L 491.222656 352.996094 L 579.632812 352.996094 L 578.3125 362.820312 " fill-opacity="1" fill-rule="nonzero"/><path fill="#ffffff" d="M 635.550781 379.882812 L 491.171875 379.882812 L 492.550781 369.65625 L 636.925781 369.65625 L 635.550781 379.882812 " fill-opacity="1" fill-rule="nonzero"/><path fill="#ffffff" d="M 635.058594 396.742188 L 552.171875 396.742188 L 553.546875 386.515625 L 636.4375 386.515625 L 635.058594 396.742188 " fill-opacity="1" fill-rule="nonzero"/><path fill="#9c88db" d="M 600.296875 430.464844 L 504.824219 430.464844 L 506.199219 420.238281 L 601.671875 420.238281 L 600.296875 430.464844 " fill-opacity="1" fill-rule="nonzero"/><path fill="#ffffff" d="M 651.632812 412.269531 L 572.128906 412.269531 L 573.503906 402.039062 L 653.007812 402.039062 L 651.632812 412.269531 " fill-opacity="1" fill-rule="nonzero"/><path fill="#ffffff" d="M 616.6875 447.324219 L 541.46875 447.324219 L 542.84375 437.097656 L 618.0625 437.097656 L 616.6875 447.324219 " fill-opacity="1" fill-rule="nonzero"/><path fill="#ffffff" d="M 1016.003906 672.3125 L 1014.007812 691.414062 L 1001.179688 692.925781 L 1001.179688 670.277344 L 1016.003906 672.3125 " fill-opacity="1" fill-rule="nonzero"/><path fill="#000000" d="M 1002.375 671.652344 L 1002.375 691.578125 L 1012.917969 690.335938 L 1014.6875 673.339844 Z M 1001.175781 694.121094 C 1000.886719 694.121094 1000.605469 694.015625 1000.386719 693.820312 C 1000.128906 693.597656 999.984375 693.269531 999.984375 692.925781 L 999.984375 670.277344 C 999.984375 669.933594 1000.132812 669.601562 1000.390625 669.375 C 1000.652344 669.148438 1000.992188 669.042969 1001.335938 669.089844 L 1016.15625 671.125 C 1016.804688 671.210938 1017.257812 671.792969 1017.191406 672.4375 L 1015.199219 691.535156 C 1015.136719 692.09375 1014.703125 692.535156 1014.152344 692.601562 L 1001.320312 694.113281 C 1001.273438 694.121094 1001.222656 694.121094 1001.175781 694.121094 " fill-opacity="1" fill-rule="nonzero"/><path fill="#794682" d="M 999.160156 726.175781 C 1004.503906 726.9375 1013.273438 727.601562 1023.574219 726.167969 C 1026.941406 725.699219 1029.175781 722.402344 1028.363281 719.082031 C 1026.097656 709.808594 1022.1875 692.214844 1015.484375 684.0625 L 1013.824219 688.480469 L 1011.523438 684.320312 C 1011.207031 683.75 1010.640625 683.363281 1009.996094 683.28125 L 1004.960938 682.636719 C 1003.910156 682.503906 1002.933594 683.207031 1002.714844 684.25 L 1001.914062 688.085938 L 998.84375 683.058594 L 997.480469 701.839844 C 997.183594 705.863281 996.582031 709.859375 995.671875 713.789062 L 994.296875 719.710938 C 993.886719 722.847656 996.050781 725.738281 999.160156 726.175781 " fill-opacity="1" fill-rule="nonzero"/><path fill="#000000" d="M 995.476562 719.921875 C 995.1875 722.382812 996.902344 724.648438 999.328125 724.992188 C 1004.757812 725.761719 1013.347656 726.382812 1023.414062 724.976562 C 1024.675781 724.804688 1025.820312 724.09375 1026.546875 723.027344 C 1027.273438 721.957031 1027.507812 720.625 1027.199219 719.363281 L 1026.714844 717.351562 C 1024.601562 708.625 1021.175781 694.433594 1015.835938 686.535156 L 1014.945312 688.902344 C 1014.777344 689.339844 1014.378906 689.644531 1013.914062 689.675781 C 1013.449219 689.710938 1013 689.46875 1012.78125 689.058594 L 1010.476562 684.894531 C 1010.347656 684.660156 1010.113281 684.5 1009.851562 684.46875 L 1004.816406 683.824219 C 1004.382812 683.773438 1003.980469 684.066406 1003.886719 684.492188 L 1003.085938 688.328125 C 1002.984375 688.8125 1002.605469 689.183594 1002.117188 689.265625 C 1001.628906 689.347656 1001.148438 689.128906 1000.890625 688.710938 L 999.765625 686.863281 L 998.671875 701.925781 C 998.378906 706 997.761719 710.082031 996.835938 714.0625 Z M 1011.289062 728.210938 C 1006.359375 728.210938 1002.15625 727.8125 998.992188 727.363281 C 995.257812 726.832031 992.621094 723.332031 993.113281 719.558594 C 993.117188 719.519531 993.125 719.480469 993.132812 719.445312 L 994.507812 713.519531 C 995.398438 709.660156 996 705.699219 996.285156 701.753906 L 997.648438 682.972656 C 997.691406 682.453125 998.054688 682.015625 998.558594 681.894531 C 999.066406 681.769531 999.59375 681.992188 999.863281 682.433594 L 1001.359375 684.882812 L 1001.542969 684.007812 C 1001.886719 682.359375 1003.453125 681.238281 1005.117188 681.449219 L 1010.152344 682.09375 C 1011.167969 682.222656 1012.074219 682.835938 1012.574219 683.742188 L 1013.621094 685.632812 L 1014.367188 683.640625 C 1014.519531 683.238281 1014.871094 682.949219 1015.292969 682.878906 C 1015.722656 682.8125 1016.140625 682.972656 1016.417969 683.300781 C 1022.835938 691.109375 1026.71875 707.1875 1029.039062 716.792969 L 1029.53125 718.796875 C 1029.996094 720.710938 1029.628906 722.742188 1028.519531 724.371094 C 1027.421875 725.996094 1025.675781 727.082031 1023.742188 727.351562 C 1019.257812 727.972656 1015.058594 728.210938 1011.289062 728.210938 " fill-opacity="1" fill-rule="nonzero"/><path fill="#000000" d="M 1010.894531 722.535156 C 1004.289062 722.535156 1000.265625 721.117188 1000.015625 721.03125 C 999.394531 720.804688 999.070312 720.117188 999.296875 719.496094 C 999.527344 718.875 1000.207031 718.554688 1000.828125 718.78125 C 1000.941406 718.820312 1009.3125 721.71875 1021.65625 718.882812 C 1022.308594 718.738281 1022.945312 719.144531 1023.09375 719.785156 C 1023.242188 720.429688 1022.839844 721.070312 1022.191406 721.21875 C 1017.914062 722.199219 1014.097656 722.535156 1010.894531 722.535156 " fill-opacity="1" fill-rule="nonzero"/><path fill="#000000" d="M 1017.082031 707.859375 C 1017.070312 707.859375 1017.054688 707.859375 1017.039062 707.859375 L 1005.011719 707.460938 C 1004.351562 707.441406 1003.839844 706.886719 1003.859375 706.226562 C 1003.882812 705.566406 1004.441406 705.050781 1005.09375 705.070312 L 1017.125 705.46875 C 1017.785156 705.492188 1018.296875 706.046875 1018.277344 706.707031 C 1018.257812 707.351562 1017.722656 707.859375 1017.082031 707.859375 " fill-opacity="1" fill-rule="nonzero"/><path fill="#ffffff" d="M 955.910156 662.136719 L 953.984375 690.011719 L 938.546875 690.011719 L 937.832031 662.136719 L 955.910156 662.136719 " fill-opacity="1" fill-rule="nonzero"/><path fill="#000000" d="M 939.714844 688.820312 L 952.867188 688.820312 L 954.628906 663.335938 L 939.054688 663.335938 Z M 953.984375 691.210938 L 938.542969 691.210938 C 937.898438 691.210938 937.367188 690.691406 937.347656 690.046875 L 936.632812 662.171875 C 936.621094 661.847656 936.746094 661.535156 936.972656 661.304688 C 937.199219 661.074219 937.507812 660.945312 937.832031 660.945312 L 955.90625 660.945312 C 956.238281 660.945312 956.554688 661.082031 956.78125 661.324219 C 957.007812 661.566406 957.125 661.890625 957.097656 662.222656 L 955.179688 690.097656 C 955.136719 690.726562 954.609375 691.210938 953.984375 691.210938 " fill-opacity="1" fill-rule="nonzero"/><path fill="#794682" d="M 958.019531 705.75 C 958.058594 708.386719 956.269531 710.703125 953.71875 711.300781 C 944.839844 713.382812 924.847656 718.007812 919.148438 718.863281 C 911.742188 719.972656 902.648438 717.6875 898.734375 713.335938 C 894.820312 708.976562 907.492188 698.566406 913.503906 694.78125 C 922.433594 689.15625 931.015625 678.042969 934.613281 677.542969 C 938.210938 677.039062 944.929688 687.546875 944.929688 687.546875 L 955.910156 682.90625 C 955.910156 682.90625 957.820312 692.378906 958.019531 705.75 " fill-opacity="1" fill-rule="nonzero"/><path fill="#000000" d="M 934.898438 678.71875 C 934.859375 678.71875 934.816406 678.722656 934.78125 678.726562 C 933.359375 678.925781 930.058594 682.082031 926.859375 685.132812 C 923.035156 688.785156 918.699219 692.925781 914.140625 695.796875 C 908.257812 699.5 899.800781 706.835938 899.222656 710.96875 C 899.105469 711.832031 899.394531 712.277344 899.621094 712.53125 C 903.136719 716.441406 911.816406 718.753906 918.96875 717.679688 C 924.648438 716.828125 944.96875 712.121094 953.445312 710.132812 C 955.429688 709.671875 956.855469 707.832031 956.820312 705.769531 C 956.671875 695.644531 955.519531 687.722656 954.992188 684.589844 L 945.394531 688.652344 C 944.859375 688.878906 944.234375 688.683594 943.921875 688.195312 C 940.945312 683.542969 936.675781 678.71875 934.898438 678.71875 Z M 915.292969 720.339844 C 908.375 720.339844 901.226562 717.902344 897.847656 714.132812 C 897.007812 713.199219 896.664062 711.992188 896.851562 710.640625 C 897.699219 704.566406 908.984375 696.214844 912.867188 693.769531 C 917.21875 691.027344 921.460938 686.976562 925.199219 683.398438 C 929.714844 679.097656 932.363281 676.644531 934.449219 676.355469 C 938.128906 675.84375 943.230469 682.820312 945.382812 686.054688 L 955.441406 681.804688 C 955.769531 681.664062 956.148438 681.679688 956.46875 681.847656 C 956.78125 682.015625 957.011719 682.316406 957.082031 682.671875 C 957.097656 682.765625 959.015625 692.402344 959.214844 705.734375 C 959.261719 708.914062 957.066406 711.742188 953.988281 712.464844 C 945.492188 714.457031 925.09375 719.179688 919.320312 720.046875 C 918.007812 720.246094 916.65625 720.339844 915.292969 720.339844 " fill-opacity="1" fill-rule="nonzero"/><path fill="#000000" d="M 915.378906 713.496094 C 910.476562 713.496094 906.085938 712.691406 902.90625 710.605469 C 902.355469 710.242188 902.203125 709.503906 902.566406 708.949219 C 902.925781 708.394531 903.671875 708.242188 904.222656 708.605469 C 915.507812 716.003906 945.859375 704.957031 951.824219 702.667969 C 952.445312 702.425781 953.136719 702.734375 953.371094 703.355469 C 953.609375 703.972656 953.296875 704.664062 952.679688 704.898438 C 946.328125 707.335938 928.917969 713.496094 915.378906 713.496094 " fill-opacity="1" fill-rule="nonzero"/><path fill="#000000" d="M 932.535156 698.34375 C 932.230469 698.34375 931.925781 698.230469 931.695312 698 L 925.300781 691.734375 C 924.832031 691.273438 924.820312 690.515625 925.285156 690.042969 C 925.742188 689.570312 926.5 689.5625 926.980469 690.023438 L 933.371094 696.289062 C 933.84375 696.75 933.851562 697.511719 933.386719 697.984375 C 933.15625 698.222656 932.84375 698.34375 932.535156 698.34375 " fill-opacity="1" fill-rule="nonzero"/><path fill="#794682" d="M 1020.378906 480.425781 C 1020.378906 480.425781 1025.160156 567.5625 1027.664062 597.644531 C 1030.167969 627.722656 1021.808594 676.078125 1021.808594 676.078125 L 997.980469 674.820312 C 997.980469 674.820312 996.34375 616.023438 994.578125 599.699219 C 994.578125 599.699219 984.511719 577.566406 981.53125 557.828125 C 978.546875 538.089844 968.378906 506.910156 968.378906 506.910156 C 968.378906 506.910156 960.132812 662.53125 959.332031 674.757812 C 959.332031 674.757812 940.648438 675.59375 933.949219 671.351562 C 933.949219 671.351562 922.078125 614.609375 923.777344 583.734375 C 925.488281 552.863281 923.613281 476.15625 923.613281 476.15625 L 1020.378906 480.425781 " fill-opacity="1" fill-rule="nonzero"/><path fill="#ffffff" d="M 1006.25 600.890625 L 998.964844 600.890625 C 998.304688 600.890625 997.769531 600.355469 997.769531 599.695312 C 997.769531 599.035156 998.304688 598.496094 998.964844 598.496094 L 1006.25 598.496094 C 1006.914062 598.496094 1007.449219 599.035156 1007.449219 599.695312 C 1007.449219 600.355469 1006.914062 600.890625 1006.25 600.890625 " fill-opacity="1" fill-rule="nonzero"/><path fill="#ffffff" d="M 947.082031 646.148438 C 946.429688 646.148438 945.898438 645.628906 945.886719 644.976562 C 945.632812 631.117188 929.714844 604.945312 929.554688 604.683594 C 929.210938 604.121094 929.386719 603.382812 929.953125 603.039062 C 930.515625 602.695312 931.253906 602.871094 931.59375 603.433594 C 932.269531 604.53125 948.015625 630.421875 948.28125 644.933594 C 948.292969 645.589844 947.765625 646.140625 947.101562 646.148438 C 947.09375 646.148438 947.089844 646.148438 947.082031 646.148438 " fill-opacity="1" fill-rule="nonzero"/><path fill="#ffffff" d="M 908.929688 342.570312 C 907.605469 342.472656 896.621094 361.324219 891.460938 370.328125 C 889.992188 372.890625 886.71875 373.722656 884.210938 372.175781 L 843.832031 347.25 C 840.539062 345.210938 837.703125 342.484375 835.578125 339.238281 C 832.203125 334.097656 830.195312 328.875 825.683594 325.226562 C 822.011719 322.257812 818.292969 318.957031 817.175781 318.097656 C 816.484375 317.558594 813.246094 319.863281 815.6875 323.957031 C 816.429688 325.210938 819.234375 327.761719 820 328.921875 C 821.222656 330.765625 821.222656 333.222656 819.863281 334.96875 C 818.417969 336.832031 817.207031 339.816406 818.835938 343.96875 C 821.238281 350.105469 826.695312 351.632812 829.78125 351.988281 C 831.328125 352.164062 832.757812 352.917969 833.789062 354.101562 L 871.050781 396.796875 C 876.832031 403.425781 886.5 404.921875 893.984375 400.347656 C 906.101562 392.941406 921.699219 378.03125 932.9375 359.175781 L 908.929688 342.570312 " fill-opacity="1" fill-rule="nonzero"/><path fill="#000000" d="M 816.785156 319.316406 C 816.597656 319.457031 816.328125 319.730469 816.15625 320.160156 C 815.800781 321.035156 815.992188 322.136719 816.707031 323.34375 C 817.046875 323.902344 818.03125 324.941406 818.894531 325.859375 C 819.761719 326.769531 820.582031 327.636719 821 328.261719 C 822.542969 330.589844 822.464844 333.582031 820.808594 335.703125 C 819.074219 337.933594 818.785156 340.566406 819.945312 343.53125 C 822.128906 349.105469 827.132812 350.476562 829.914062 350.800781 C 831.765625 351.007812 833.460938 351.90625 834.6875 353.3125 L 871.953125 396.015625 C 877.359375 402.207031 886.359375 403.601562 893.359375 399.328125 C 904.019531 392.8125 919.507812 378.976562 931.328125 359.527344 L 908.96875 344.058594 C 907.332031 345.96875 902.320312 353.796875 892.492188 370.925781 C 891.617188 372.445312 890.207031 373.527344 888.511719 373.953125 C 886.816406 374.382812 885.066406 374.113281 883.582031 373.195312 L 843.199219 348.265625 C 839.75 346.136719 836.769531 343.242188 834.574219 339.894531 C 833.566406 338.363281 832.679688 336.828125 831.828125 335.339844 C 829.828125 331.875 827.945312 328.597656 824.929688 326.160156 C 822.785156 324.425781 820.582031 322.542969 818.976562 321.171875 C 818.054688 320.386719 817.289062 319.730469 816.785156 319.316406 Z M 884.617188 404.191406 C 879.234375 404.191406 873.925781 401.910156 870.152344 397.589844 L 832.882812 354.886719 C 832.050781 353.933594 830.898438 353.320312 829.644531 353.179688 C 826.320312 352.792969 820.359375 351.144531 817.714844 344.40625 C 815.859375 339.660156 817.34375 336.257812 818.921875 334.234375 C 819.941406 332.921875 819.980469 331.050781 819.003906 329.582031 C 818.707031 329.132812 817.921875 328.300781 817.164062 327.503906 C 816.113281 326.402344 815.121094 325.359375 814.652344 324.570312 C 812.761719 321.394531 813.707031 318.84375 815.085938 317.617188 C 816.058594 316.757812 817.171875 316.578125 817.914062 317.152344 C 818.402344 317.527344 819.292969 318.292969 820.53125 319.351562 C 822.214844 320.789062 824.3125 322.582031 826.433594 324.296875 C 829.800781 327.019531 831.789062 330.476562 833.898438 334.148438 C 834.738281 335.605469 835.609375 337.109375 836.574219 338.585938 C 838.578125 341.636719 841.304688 344.28125 844.460938 346.226562 L 884.839844 371.15625 C 885.769531 371.730469 886.867188 371.898438 887.925781 371.632812 C 888.984375 371.363281 889.867188 370.691406 890.417969 369.730469 C 906.78125 341.203125 907.96875 341.296875 909.019531 341.382812 C 909.230469 341.398438 909.433594 341.46875 909.605469 341.585938 L 933.613281 358.195312 C 934.132812 358.550781 934.285156 359.25 933.964844 359.792969 C 921.84375 380.125 905.6875 394.597656 894.605469 401.367188 C 891.5 403.265625 888.042969 404.191406 884.617188 404.191406 " fill-opacity="1" fill-rule="nonzero"/><path fill="#000000" d="M 1047.515625 377.644531 C 1047.515625 377.644531 1050.203125 328 1012.675781 314.054688 C 983.617188 303.257812 946.507812 307.914062 934.882812 311.949219 C 906.25 321.882812 892.15625 359.71875 892.15625 359.71875 L 925.714844 364.445312 C 925.714844 364.445312 915.597656 473.148438 919.984375 497.390625 C 919.984375 497.390625 946.988281 500.5625 958.441406 496.023438 C 969.894531 491.480469 1007.554688 485.117188 1025.558594 493.445312 L 1022.285156 377.175781 L 1047.515625 377.644531 " fill-opacity="1" fill-rule="nonzero"/><path fill="#ffffff" d="M 1000.742188 470.679688 C 1000.675781 470.679688 1000.601562 470.675781 1000.535156 470.660156 C 956.515625 462.832031 943.621094 431.929688 943.492188 431.617188 C 943.246094 431.003906 943.546875 430.304688 944.15625 430.058594 C 944.769531 429.8125 945.464844 430.109375 945.714844 430.722656 C 945.835938 431.019531 958.300781 460.714844 1000.953125 468.300781 C 1001.605469 468.417969 1002.039062 469.039062 1001.917969 469.691406 C 1001.820312 470.273438 1001.316406 470.679688 1000.742188 470.679688 " fill-opacity="1" fill-rule="nonzero"/><path fill="#9c88db" d="M 920.679688 417.628906 L 975.660156 417.628906 L 958.441406 355.808594 L 903.460938 355.808594 L 920.679688 417.628906 " fill-opacity="1" fill-rule="nonzero"/><path fill="#000000" d="M 921.589844 416.433594 L 974.082031 416.433594 L 957.527344 357.007812 L 905.039062 357.007812 Z M 975.65625 418.824219 L 920.679688 418.824219 C 920.144531 418.824219 919.667969 418.46875 919.527344 417.949219 L 902.304688 356.132812 C 902.203125 355.769531 902.28125 355.390625 902.503906 355.089844 C 902.730469 354.789062 903.089844 354.613281 903.460938 354.613281 L 958.4375 354.613281 C 958.976562 354.613281 959.445312 354.972656 959.589844 355.488281 L 976.8125 417.308594 C 976.90625 417.667969 976.835938 418.054688 976.609375 418.351562 C 976.382812 418.652344 976.03125 418.824219 975.65625 418.824219 " fill-opacity="1" fill-rule="nonzero"/><path fill="#ffffff" d="M 1041 377.683594 L 1016.824219 376.585938 C 1016.824219 376.585938 1016.640625 397.082031 1014.464844 397.449219 C 1006.691406 398.753906 990.414062 398.816406 979.828125 397.527344 C 976.132812 397.082031 973.214844 394.238281 972.523438 390.566406 C 971.996094 387.792969 970.503906 384.53125 966.714844 382.183594 C 963.054688 379.917969 966.667969 387.050781 963.242188 391.644531 C 961.40625 394.117188 955.578125 393.019531 947.644531 391.171875 C 939.710938 389.316406 937.691406 397.855469 946.589844 403.019531 C 956.230469 408.613281 962.359375 407.988281 965.433594 408.640625 C 971.5625 409.949219 1025.734375 418.492188 1034.09375 413.917969 C 1040.558594 410.382812 1041 377.683594 1041 377.683594 " fill-opacity="1" fill-rule="nonzero"/><path fill="#000000" d="M 945.566406 392.109375 C 943.882812 392.109375 942.644531 392.769531 942.164062 393.976562 C 941.347656 396.03125 942.816406 399.441406 947.191406 401.980469 C 954.546875 406.253906 959.730469 406.78125 963.164062 407.132812 C 964.132812 407.230469 964.96875 407.316406 965.683594 407.46875 C 974.457031 409.335938 1025.898438 417.035156 1033.523438 412.867188 C 1037.652344 410.605469 1039.523438 391.277344 1039.785156 378.828125 L 1018.011719 377.839844 C 1017.742188 398.109375 1015.59375 398.472656 1014.664062 398.628906 C 1006.671875 399.96875 990.328125 400.007812 979.679688 398.714844 C 975.492188 398.207031 972.144531 395.023438 971.347656 390.789062 C 970.730469 387.542969 968.96875 384.992188 966.097656 383.207031 C 966.082031 383.574219 966.089844 384.03125 966.09375 384.410156 C 966.109375 386.546875 966.136719 389.769531 964.207031 392.359375 C 961.902344 395.449219 956.046875 394.355469 947.375 392.335938 C 946.730469 392.183594 946.121094 392.109375 945.566406 392.109375 Z M 1023.597656 416.4375 C 1004.164062 416.4375 968.253906 410.460938 965.191406 409.8125 C 964.59375 409.683594 963.824219 409.605469 962.921875 409.515625 C 959.503906 409.164062 953.796875 408.582031 945.988281 404.050781 C 940.179688 400.683594 938.78125 396.011719 939.9375 393.09375 C 941.03125 390.339844 944.164062 389.128906 947.917969 390.003906 C 953.332031 391.265625 960.746094 392.996094 962.285156 390.929688 C 963.734375 388.984375 963.710938 386.351562 963.699219 384.429688 C 963.683594 382.730469 963.671875 381.382812 964.75 380.773438 C 965.78125 380.195312 966.917969 380.902344 967.347656 381.167969 C 970.769531 383.289062 972.96875 386.457031 973.699219 390.34375 C 974.304688 393.546875 976.824219 395.960938 979.964844 396.339844 C 990.117188 397.574219 1006.175781 397.554688 1013.964844 396.316406 C 1014.902344 394.570312 1015.554688 384.894531 1015.632812 376.574219 C 1015.632812 376.253906 1015.769531 375.941406 1016.003906 375.71875 C 1016.242188 375.492188 1016.546875 375.378906 1016.882812 375.390625 L 1041.058594 376.488281 C 1041.707031 376.519531 1042.207031 377.054688 1042.199219 377.703125 C 1042.15625 381.121094 1041.546875 411.207031 1034.675781 414.964844 C 1032.753906 416.015625 1028.753906 416.4375 1023.597656 416.4375 " fill-opacity="1" fill-rule="nonzero"/><path fill="#ffffff" d="M 957.746094 312.835938 C 957.746094 312.835938 964.003906 308.980469 963.945312 306.734375 L 965.730469 295.167969 C 965.75 294.109375 965.097656 293.164062 964.113281 292.8125 L 956.710938 290.269531 C 955.765625 289.941406 955.15625 289.007812 955.21875 287.996094 L 955.796875 278.804688 L 952.894531 276.238281 C 952.671875 276.035156 952.644531 275.691406 952.835938 275.453125 L 957.417969 269.871094 C 958.914062 267.761719 960.421875 262.707031 961.648438 263.054688 C 961.648438 263.054688 987.765625 260.035156 989.039062 273.203125 C 989.222656 275.113281 988.648438 277.015625 987.539062 278.578125 L 985.230469 281.839844 C 982.910156 285.109375 981.683594 289.125 982.09375 293.140625 C 982.183594 293.972656 983.265625 299.339844 983.992188 302.890625 C 984.402344 304.902344 985.523438 306.691406 987.144531 307.945312 C 989.1875 309.515625 991.671875 311.519531 991.265625 311.648438 C 991.265625 311.648438 988.375 313.773438 983.808594 315.65625 C 975.699219 318.992188 966.476562 318.167969 958.988281 313.589844 L 957.746094 312.835938 " fill-opacity="1" fill-rule="nonzero"/><path fill="#000000" d="M 959.996094 312.796875 C 967.128906 316.992188 975.828125 317.648438 983.355469 314.542969 C 986.148438 313.394531 988.308594 312.136719 989.507812 311.378906 C 988.957031 310.898438 988.023438 310.121094 986.421875 308.894531 C 984.574219 307.46875 983.292969 305.414062 982.824219 303.121094 C 981.621094 297.257812 980.976562 293.945312 980.90625 293.257812 C 980.480469 289.09375 981.667969 284.789062 984.253906 281.144531 L 986.570312 277.878906 C 987.546875 276.503906 988 274.882812 987.847656 273.320312 C 987.640625 271.164062 986.679688 269.421875 984.921875 268 C 978.054688 262.445312 961.949219 264.222656 961.789062 264.238281 C 961.773438 264.246094 961.761719 264.246094 961.75 264.246094 C 961.339844 264.703125 960.660156 266.164062 960.195312 267.160156 C 959.621094 268.394531 959.03125 269.671875 958.398438 270.5625 C 958.382812 270.585938 958.367188 270.605469 958.347656 270.625 L 954.148438 275.746094 L 956.59375 277.910156 C 956.871094 278.152344 957.019531 278.511719 956.992188 278.882812 L 956.417969 288.070312 C 956.386719 288.546875 956.667969 288.984375 957.109375 289.144531 L 964.503906 291.683594 C 965.988281 292.203125 966.957031 293.613281 966.929688 295.1875 C 966.929688 295.246094 966.925781 295.296875 966.917969 295.351562 L 965.144531 306.824219 C 965.078125 308.882812 962.210938 311.261719 959.996094 312.796875 Z M 973.507812 318.871094 C 968.253906 318.871094 962.996094 317.4375 958.367188 314.613281 L 957.128906 313.851562 C 956.769531 313.640625 956.554688 313.25 956.554688 312.835938 C 956.554688 312.421875 956.765625 312.03125 957.125 311.8125 C 960.035156 310.019531 962.769531 307.5625 962.75 306.761719 C 962.75 306.691406 962.753906 306.617188 962.765625 306.546875 L 964.539062 295.078125 C 964.523438 294.5625 964.199219 294.109375 963.71875 293.9375 L 956.324219 291.402344 C 954.871094 290.886719 953.933594 289.457031 954.03125 287.917969 L 954.570312 279.316406 L 952.105469 277.128906 C 951.390625 276.503906 951.308594 275.429688 951.914062 274.695312 L 956.46875 269.140625 C 956.964844 268.425781 957.503906 267.273438 958.023438 266.152344 C 959.191406 263.644531 960.136719 261.640625 961.699219 261.84375 C 963.667969 261.632812 979.113281 260.222656 986.425781 266.136719 C 988.683594 267.960938 989.960938 270.296875 990.234375 273.089844 C 990.441406 275.226562 989.832031 277.417969 988.519531 279.265625 L 986.210938 282.527344 C 983.957031 285.699219 982.921875 289.425781 983.289062 293.015625 C 983.316406 293.289062 983.558594 294.773438 985.167969 302.644531 C 985.523438 304.375 986.484375 305.917969 987.878906 306.996094 C 992.683594 310.691406 992.621094 311.042969 992.492188 311.804688 C 992.4375 312.121094 992.234375 312.414062 991.976562 312.609375 L 991.976562 312.613281 C 991.855469 312.699219 988.914062 314.84375 984.269531 316.757812 C 980.832031 318.175781 977.167969 318.871094 973.507812 318.871094 " fill-opacity="1" fill-rule="nonzero"/><path fill="#000000" d="M 960.785156 243.007812 C 966.734375 242.703125 959.207031 248.835938 981.253906 242.496094 C 990.035156 239.976562 985.519531 250.273438 987.804688 249.628906 C 996.222656 247.234375 995.933594 247.304688 1000.023438 248.425781 C 1002.734375 249.160156 1004.457031 254.230469 1003.921875 258 C 1003.210938 262.984375 997.621094 270.894531 992.617188 279.257812 C 990.023438 283.582031 985.433594 283.976562 979.890625 277.535156 C 979.296875 276.851562 982.316406 272.804688 980.738281 271.0625 C 976.644531 266.542969 974.824219 273.375 971.519531 271.265625 C 968.347656 269.242188 967.039062 267.925781 963.679688 264.863281 C 959.621094 261.15625 952.804688 266.929688 950.457031 258.582031 C 949.234375 254.226562 952.632812 243.425781 960.785156 243.007812 " fill-opacity="1" fill-rule="nonzero"/><path fill="#ffffff" d="M 765.976562 699.171875 C 765.976562 699.171875 767.792969 699.175781 769.542969 697.9375 C 774.941406 694.109375 786.167969 685.558594 793.835938 686.628906 C 806.675781 688.417969 808.195312 698.90625 808.195312 698.90625 C 808.195312 698.90625 819.03125 698.5 818.8125 705.707031 C 818.648438 711.238281 815.496094 718.269531 806.742188 722.136719 C 794.804688 727.410156 782.835938 731.425781 769.628906 722.773438 C 767.0625 721.09375 764.019531 720.308594 760.972656 720.617188 C 753.554688 721.363281 642.957031 723.746094 642.957031 723.746094 C 617.660156 723.746094 594.449219 709.707031 582.699219 687.300781 L 559.390625 642.835938 L 586.097656 568.210938 L 627.976562 665.503906 C 648.269531 693.199219 763.859375 699.652344 765.976562 699.171875 " fill-opacity="1" fill-rule="nonzero"/><path fill="#000000" d="M 765.910156 699.179688 L 765.917969 699.179688 Z M 762.257812 719.355469 C 765.070312 719.355469 767.875 720.191406 770.285156 721.773438 C 783.046875 730.136719 794.585938 726.199219 806.257812 721.042969 C 816.507812 716.515625 817.542969 708.132812 817.617188 705.671875 C 817.65625 704.355469 817.261719 703.308594 816.40625 702.460938 C 814.289062 700.351562 809.792969 700.042969 808.242188 700.097656 C 807.636719 700.105469 807.101562 699.683594 807.015625 699.074219 C 806.957031 698.6875 805.417969 689.449219 793.667969 687.8125 C 787.023438 686.878906 776.925781 694.125 771.496094 698.015625 L 770.234375 698.917969 C 768.230469 700.335938 766.125 700.367188 765.976562 700.367188 C 762.59375 700.574219 733.671875 698.84375 703.605469 694.085938 C 661.445312 687.414062 635.679688 678.035156 627.011719 666.210938 C 626.957031 666.136719 626.914062 666.058594 626.878906 665.972656 L 586.199219 571.476562 L 560.695312 642.746094 L 583.761719 686.746094 C 595.339844 708.832031 618.019531 722.550781 642.957031 722.550781 C 644.039062 722.527344 753.5625 720.160156 760.851562 719.425781 C 761.320312 719.378906 761.792969 719.355469 762.257812 719.355469 Z M 785.75 728.988281 C 780.335938 728.988281 774.75 727.558594 768.972656 723.773438 C 766.617188 722.230469 763.820312 721.535156 761.09375 721.808594 C 753.710938 722.550781 647.5 724.84375 642.980469 724.941406 C 617.128906 724.941406 593.632812 710.730469 581.640625 687.855469 L 558.332031 643.390625 C 558.175781 643.09375 558.152344 642.746094 558.261719 642.433594 L 584.972656 567.804688 C 585.136719 567.34375 585.570312 567.027344 586.058594 567.011719 C 586.539062 567 587.003906 567.285156 587.199219 567.734375 L 629.023438 664.902344 C 648.644531 691.296875 760.710938 698.457031 765.769531 697.988281 C 765.835938 697.976562 765.90625 697.972656 765.96875 697.972656 C 766.007812 697.972656 767.46875 697.9375 768.847656 696.964844 L 770.101562 696.070312 C 776.203125 691.699219 786.421875 684.390625 794 685.441406 C 805.140625 686.996094 808.347656 694.878906 809.144531 697.714844 C 811.117188 697.78125 815.542969 698.226562 818.09375 700.761719 C 819.425781 702.082031 820.070312 703.757812 820.011719 705.742188 C 819.925781 708.558594 818.753906 718.140625 807.222656 723.230469 C 800.375 726.257812 793.226562 728.988281 785.75 728.988281 " fill-opacity="1" fill-rule="nonzero"/><path fill="#ffffff" d="M 736.917969 679.167969 L 747.613281 660.445312 L 756.390625 666.140625 C 756.875 666.457031 757.28125 666.882812 757.570312 667.378906 L 758.09375 668.285156 C 758.753906 669.421875 759.976562 670.121094 761.277344 670.109375 C 761.988281 670.101562 762.683594 670.304688 763.285156 670.691406 L 828.574219 712.980469 C 829.113281 713.328125 829.601562 713.746094 830.035156 714.222656 L 843.230469 728.851562 L 824.863281 724.699219 C 823.863281 724.472656 822.890625 724.117188 821.980469 723.640625 L 753.265625 687.714844 C 752.683594 687.410156 752.183594 686.949219 751.839844 686.386719 L 751.753906 686.242188 C 751.085938 685.15625 749.902344 684.492188 748.644531 684.5 L 748.011719 684.5 C 747.425781 684.503906 746.851562 684.363281 746.332031 684.089844 L 736.917969 679.167969 " fill-opacity="1" fill-rule="nonzero"/><path fill="#000000" d="M 748.660156 683.300781 C 750.320312 683.300781 751.894531 684.1875 752.773438 685.617188 L 752.855469 685.757812 C 753.09375 686.140625 753.425781 686.445312 753.824219 686.652344 L 822.535156 722.582031 C 823.355469 723.011719 824.226562 723.328125 825.125 723.53125 L 839.816406 726.851562 L 829.144531 715.023438 C 828.785156 714.628906 828.375 714.273438 827.925781 713.984375 L 762.632812 671.695312 C 762.238281 671.441406 761.785156 671.300781 761.324219 671.300781 C 761.292969 671.300781 761.261719 671.304688 761.238281 671.304688 C 759.523438 671.304688 757.925781 670.378906 757.058594 668.882812 L 756.535156 667.980469 C 756.339844 667.644531 756.0625 667.359375 755.742188 667.148438 L 748.023438 662.136719 L 738.574219 678.683594 L 746.886719 683.027344 C 747.230469 683.210938 747.628906 683.320312 748.003906 683.304688 L 748.640625 683.300781 C 748.648438 683.300781 748.652344 683.300781 748.660156 683.300781 Z M 843.230469 730.046875 C 843.144531 730.046875 843.050781 730.039062 842.964844 730.015625 L 824.597656 725.867188 C 823.5 725.617188 822.429688 725.226562 821.425781 724.703125 L 752.710938 688.78125 C 751.933594 688.371094 751.28125 687.757812 750.820312 687.011719 L 750.734375 686.871094 C 750.289062 686.144531 749.492188 685.695312 748.660156 685.695312 C 748.65625 685.695312 748.652344 685.695312 748.652344 685.695312 L 748.015625 685.699219 C 747.214844 685.683594 746.46875 685.511719 745.773438 685.148438 L 736.363281 680.230469 C 736.074219 680.082031 735.859375 679.820312 735.769531 679.507812 C 735.679688 679.195312 735.714844 678.855469 735.878906 678.574219 L 746.574219 659.851562 C 746.738281 659.566406 747.007812 659.359375 747.328125 659.285156 C 747.648438 659.203125 747.992188 659.261719 748.261719 659.441406 L 757.042969 665.140625 C 757.679688 665.554688 758.21875 666.121094 758.605469 666.777344 L 759.128906 667.683594 C 759.570312 668.441406 760.375 668.914062 761.234375 668.914062 C 761.261719 668.910156 761.296875 668.910156 761.324219 668.910156 C 762.246094 668.910156 763.148438 669.175781 763.933594 669.6875 L 829.226562 711.976562 C 829.851562 712.378906 830.425781 712.867188 830.921875 713.421875 L 844.117188 728.046875 C 844.46875 728.4375 844.527344 729.003906 844.261719 729.453125 C 844.042969 729.828125 843.644531 730.046875 843.230469 730.046875 " fill-opacity="1" fill-rule="nonzero"/><path fill="#000000" d="M 825.273438 722.441406 C 825.089844 722.441406 824.898438 722.398438 824.726562 722.308594 C 824.136719 722.003906 823.910156 721.28125 824.210938 720.695312 L 828.132812 713.097656 C 828.4375 712.511719 829.160156 712.28125 829.746094 712.582031 C 830.332031 712.886719 830.5625 713.605469 830.261719 714.195312 L 826.339844 721.792969 C 826.125 722.203125 825.707031 722.441406 825.273438 722.441406 " fill-opacity="1" fill-rule="nonzero"/><path fill="#794682" d="M 732.402344 651.171875 L 747.964844 660.582031 L 736.984375 679.273438 L 721.421875 669.867188 C 718.574219 668.144531 717.59375 664.476562 719.242188 661.675781 L 724.261719 653.128906 C 725.910156 650.328125 729.550781 649.453125 732.402344 651.171875 " fill-opacity="1" fill-rule="nonzero"/><path fill="#000000" d="M 729.269531 651.488281 C 728.878906 651.488281 728.488281 651.535156 728.101562 651.632812 C 726.910156 651.9375 725.910156 652.679688 725.292969 653.734375 L 720.273438 662.285156 C 718.960938 664.519531 719.757812 667.460938 722.042969 668.84375 L 736.566406 677.621094 L 746.332031 660.992188 L 731.785156 652.199219 C 731.003906 651.730469 730.140625 651.488281 729.269531 651.488281 Z M 736.984375 680.46875 C 736.765625 680.46875 736.554688 680.410156 736.363281 680.296875 L 720.804688 670.890625 C 717.402344 668.835938 716.238281 664.425781 718.210938 661.070312 L 723.230469 652.519531 C 724.175781 650.914062 725.695312 649.773438 727.511719 649.308594 C 729.386719 648.839844 731.34375 649.136719 733.023438 650.148438 L 748.582031 659.554688 C 749.140625 659.894531 749.328125 660.621094 748.996094 661.183594 L 738.015625 679.875 C 737.855469 680.152344 737.589844 680.355469 737.28125 680.433594 C 737.183594 680.457031 737.082031 680.46875 736.984375 680.46875 " fill-opacity="1" fill-rule="nonzero"/><path fill="#000000" d="M 752.308594 683.027344 C 752.097656 683.027344 751.882812 682.972656 751.691406 682.855469 C 751.125 682.515625 750.941406 681.78125 751.285156 681.214844 L 756.578125 672.421875 C 756.921875 671.855469 757.65625 671.671875 758.21875 672.011719 C 758.789062 672.351562 758.96875 673.089844 758.628906 673.65625 L 753.335938 682.449219 C 753.109375 682.820312 752.714844 683.027344 752.308594 683.027344 " fill-opacity="1" fill-rule="nonzero"/><path fill="#000000" d="M 783.554688 690.464844 C 783.335938 690.464844 783.117188 690.40625 782.921875 690.277344 L 763.433594 678.050781 C 762.875 677.699219 762.707031 676.960938 763.058594 676.402344 C 763.410156 675.835938 764.148438 675.671875 764.707031 676.023438 L 784.191406 688.253906 C 784.75 688.605469 784.921875 689.34375 784.570312 689.902344 C 784.34375 690.265625 783.953125 690.464844 783.554688 690.464844 " fill-opacity="1" fill-rule="nonzero"/><path fill="#000000" d="M 824.167969 715.660156 C 823.957031 715.660156 823.738281 715.597656 823.539062 715.476562 L 815.929688 710.738281 C 815.367188 710.390625 815.195312 709.648438 815.542969 709.089844 C 815.894531 708.523438 816.632812 708.355469 817.191406 708.703125 L 824.804688 713.445312 C 825.363281 713.792969 825.535156 714.535156 825.1875 715.09375 C 824.960938 715.457031 824.570312 715.660156 824.167969 715.660156 " fill-opacity="1" fill-rule="nonzero"/><path fill="#ffffff" d="M 735.25 672.953125 C 735.035156 672.953125 734.820312 672.898438 734.625 672.78125 L 722.765625 665.5 C 722.203125 665.152344 722.027344 664.414062 722.375 663.851562 C 722.71875 663.285156 723.457031 663.113281 724.019531 663.457031 L 735.878906 670.738281 C 736.441406 671.082031 736.617188 671.820312 736.269531 672.382812 C 736.046875 672.753906 735.652344 672.953125 735.25 672.953125 " fill-opacity="1" fill-rule="nonzero"/><path fill="#ffffff" d="M 765.976562 699.171875 C 765.976562 699.171875 781.910156 697.1875 792.058594 698.59375 C 799.964844 699.6875 823.359375 694.070312 818.472656 709.203125 C 817.417969 712.464844 816.863281 714.632812 813.96875 717.710938 C 812.378906 719.394531 808.046875 722.855469 805.589844 723.945312 C 793.640625 729.21875 782.8125 731.433594 769.589844 722.746094 C 767.042969 721.074219 764.003906 720.3125 760.976562 720.617188 C 759.210938 720.792969 765.414062 699.296875 765.976562 699.171875 " fill-opacity="1" fill-rule="nonzero"/><path fill="#000000" d="M 787.390625 729.78125 C 781.480469 729.78125 775.472656 728.042969 768.929688 723.746094 C 766.609375 722.222656 763.824219 721.527344 761.097656 721.808594 C 759.140625 722.003906 752.890625 722.222656 752.625 722.234375 C 751.972656 722.25 751.410156 721.738281 751.386719 721.078125 C 751.363281 720.417969 751.878906 719.859375 752.539062 719.839844 C 752.605469 719.835938 758.976562 719.613281 760.859375 719.425781 C 764.128906 719.097656 767.464844 719.917969 770.246094 721.746094 C 782.753906 729.960938 792.855469 728.257812 805.105469 722.847656 C 807.355469 721.855469 811.550781 718.53125 813.097656 716.890625 C 815.609375 714.222656 816.210938 712.339844 817.125 709.488281 L 817.332031 708.839844 C 818.195312 706.164062 818.132812 704.222656 817.148438 702.90625 C 814.898438 699.902344 807.945312 700.097656 801.8125 700.273438 C 797.863281 700.382812 794.128906 700.488281 791.703125 699.734375 C 779.769531 696.027344 766.476562 700.265625 766.34375 700.3125 C 766.308594 700.320312 766.277344 700.328125 766.238281 700.335938 C 765.683594 700.460938 764.441406 700.472656 759.726562 700.152344 C 759.066406 700.105469 758.570312 699.535156 758.613281 698.875 C 758.660156 698.214844 759.257812 697.714844 759.886719 697.765625 C 764.011719 698.042969 765.324219 698.054688 765.683594 698.003906 C 766.960938 697.601562 780.128906 693.632812 792.414062 697.449219 C 794.457031 698.082031 798 697.984375 801.746094 697.878906 C 808.460938 697.691406 816.070312 697.476562 819.0625 701.46875 C 820.53125 703.425781 820.710938 706.15625 819.609375 709.574219 L 819.40625 710.21875 C 818.464844 713.148438 817.722656 715.46875 814.835938 718.53125 C 813.125 720.347656 808.691406 723.882812 806.074219 725.035156 C 799.625 727.886719 793.5625 729.78125 787.390625 729.78125 " fill-opacity="1" fill-rule="nonzero"/><path fill="#794682" d="M 520.914062 515.921875 C 520.914062 515.921875 569.996094 522.421875 586.292969 542.285156 C 606.9375 567.441406 615.835938 604.820312 618.726562 620.972656 C 619.578125 625.71875 619.476562 630.582031 618.429688 635.289062 L 617.226562 640.683594 C 612.988281 659.726562 595.621094 672.929688 576.136719 671.914062 L 577.113281 671.917969 C 573.960938 671.75 569.367188 670.710938 568.035156 667.855469 L 562.878906 658.445312 L 562.394531 661.835938 C 558.515625 686.867188 578.746094 721.15625 578.746094 721.15625 L 520.695312 713.328125 C 490.871094 710.332031 462.492188 698.582031 439.722656 679.085938 C 427.363281 668.5 417.804688 658.59375 413.679688 646.566406 C 406.675781 626.144531 407.316406 620.324219 405.351562 595.542969 C 404.015625 578.671875 408.964844 561.816406 419.546875 548.609375 C 435.097656 529.199219 465.035156 508.832031 520.914062 515.921875 " fill-opacity="1" fill-rule="nonzero"/><path fill="#9c88db" d="M 566.210938 668.480469 C 565.761719 668.480469 565.332031 668.230469 565.128906 667.796875 L 551.382812 638.925781 C 551.097656 638.332031 551.351562 637.617188 551.949219 637.332031 C 552.542969 637.050781 553.257812 637.304688 553.542969 637.898438 L 567.289062 666.765625 C 567.574219 667.363281 567.320312 668.082031 566.722656 668.363281 C 566.558594 668.441406 566.382812 668.480469 566.210938 668.480469 " fill-opacity="1" fill-rule="nonzero"/><path fill="#000000" d="M 528.609375 417.617188 L 532.210938 415.210938 C 535.105469 413.285156 536.324219 409.625 535.117188 406.363281 C 531.496094 396.582031 518.296875 379.53125 470.277344 392.480469 C 421.316406 405.683594 429.972656 484.25 471.683594 501.039062 C 513.394531 517.832031 527.558594 431.519531 527.558594 431.519531 L 528.609375 417.617188 " fill-opacity="1" fill-rule="nonzero"/><path fill="#ffffff" d="M 522.589844 419.414062 C 523.148438 416.417969 527.136719 415.757812 528.648438 418.40625 C 532.308594 424.839844 534.058594 429.3125 534.644531 432.042969 C 535.429688 435.71875 532.019531 439.390625 533.855469 443.324219 C 535.691406 447.257812 538.578125 451.71875 538.839844 458.804688 C 539.097656 465.722656 546.117188 497.445312 521.472656 496.441406 C 520.503906 496.402344 519.695312 497.164062 519.707031 498.136719 C 519.765625 502.960938 520.023438 516.242188 521.097656 523.429688 C 521.683594 527.351562 519.242188 531.078125 515.429688 532.152344 C 505.5625 534.9375 487.195312 538.859375 473.449219 534.390625 C 469.875 533.230469 468 529.3125 469.273438 525.777344 C 470.898438 521.265625 473.167969 508.585938 471.683594 501.039062 C 471.683594 501.039062 479.914062 500.230469 489.078125 496.023438 C 503.167969 489.5625 510.097656 473.824219 506.207031 458.820312 C 505.367188 455.589844 503.558594 451.003906 505.445312 446.148438 C 510.3125 433.613281 517.589844 446.207031 517.589844 446.207031 L 522.589844 419.414062 " fill-opacity="1" fill-rule="nonzero"/><path fill="#000000" d="M 473.066406 502.066406 C 474.167969 509.984375 471.996094 521.753906 470.398438 526.183594 C 469.890625 527.601562 469.972656 529.125 470.636719 530.480469 C 471.289062 531.8125 472.417969 532.796875 473.820312 533.25 C 487.289062 537.632812 505.46875 533.722656 515.101562 531 C 518.339844 530.085938 520.40625 526.910156 519.914062 523.609375 C 518.84375 516.433594 518.574219 503.410156 518.507812 498.148438 C 518.5 497.359375 518.808594 496.617188 519.375 496.066406 C 519.941406 495.511719 520.726562 495.207031 521.519531 495.25 C 526.890625 495.460938 531.03125 494.046875 533.84375 491.035156 C 540.355469 484.058594 538.816406 470.101562 537.992188 462.601562 C 537.816406 461.011719 537.675781 459.761719 537.644531 458.847656 C 537.433594 453.203125 535.488281 449.3125 533.773438 445.882812 C 533.421875 445.175781 533.082031 444.496094 532.769531 443.832031 C 531.554688 441.222656 532.265625 438.761719 532.894531 436.59375 C 533.335938 435.0625 533.757812 433.621094 533.472656 432.296875 C 533.085938 430.5 531.8125 426.386719 527.609375 419 C 527.074219 418.066406 526.140625 417.859375 525.453125 417.972656 C 524.765625 418.089844 523.960938 418.589844 523.765625 419.632812 L 518.175781 449.605469 L 516.554688 446.8125 C 515.765625 445.449219 512.949219 441.617188 510.566406 441.796875 C 508.734375 441.9375 507.378906 444.476562 506.558594 446.582031 C 505.074219 450.40625 506.128906 454.125 506.976562 457.117188 C 507.117188 457.605469 507.25 458.074219 507.363281 458.515625 C 511.453125 474.277344 503.972656 490.507812 489.578125 497.109375 C 482.347656 500.429688 475.753906 501.667969 473.066406 502.066406 Z M 487.945312 537.605469 C 482.808594 537.605469 477.695312 537.03125 473.078125 535.53125 C 471.058594 534.871094 469.425781 533.453125 468.484375 531.535156 C 467.535156 529.59375 467.414062 527.40625 468.148438 525.371094 C 469.707031 521.042969 471.953125 508.609375 470.507812 501.273438 L 470.253906 499.980469 L 471.566406 499.847656 C 471.644531 499.84375 479.722656 499 488.582031 494.933594 C 501.917969 488.816406 508.84375 473.753906 505.046875 459.121094 C 504.9375 458.691406 504.808594 458.242188 504.675781 457.769531 C 503.777344 454.613281 502.550781 450.292969 504.328125 445.710938 C 505.878906 441.71875 507.917969 439.597656 510.382812 439.410156 C 513.058594 439.210938 515.425781 441.359375 516.933594 443.199219 L 521.414062 419.195312 C 521.761719 417.335938 523.191406 415.929688 525.058594 415.613281 C 526.929688 415.296875 528.746094 416.164062 529.6875 417.8125 C 533.835938 425.097656 535.308594 429.433594 535.8125 431.792969 C 536.222656 433.707031 535.699219 435.511719 535.195312 437.257812 C 534.632812 439.195312 534.105469 441.027344 534.941406 442.816406 C 535.242188 443.464844 535.574219 444.125 535.914062 444.8125 C 537.648438 448.28125 539.808594 452.597656 540.035156 458.757812 C 540.066406 459.585938 540.207031 460.859375 540.371094 462.339844 C 541.238281 470.21875 542.855469 484.886719 535.59375 492.664062 C 532.285156 496.214844 527.515625 497.882812 521.421875 497.636719 C 521.222656 497.636719 521.101562 497.722656 521.042969 497.777344 C 520.976562 497.84375 520.902344 497.953125 520.902344 498.121094 C 520.96875 503.335938 521.230469 516.222656 522.28125 523.257812 C 522.953125 527.742188 520.144531 532.0625 515.753906 533.300781 C 509.101562 535.183594 498.472656 537.605469 487.945312 537.605469 " fill-opacity="1" fill-rule="nonzero"/><path fill="#000000" d="M 450.566406 408.359375 C 450.566406 408.359375 426.472656 396.863281 408.949219 413.289062 C 391.425781 429.714844 374.453125 465.859375 400.734375 505.285156 C 417.253906 530.0625 423.605469 549.652344 426.046875 560.785156 C 426.867188 564.515625 431.75 565.449219 433.867188 562.273438 C 444.445312 546.390625 463.742188 511.371094 454.398438 478.453125 C 441.804688 434.101562 450.566406 408.359375 450.566406 408.359375 " fill-opacity="1" fill-rule="nonzero"/><path fill="#000000" d="M 539.523438 455.933594 L 538.292969 453.878906 C 545.652344 449.46875 541.238281 437.105469 539.660156 433.308594 L 517.671875 444.535156 L 516.582031 442.402344 L 540.792969 430.042969 L 541.324219 431.144531 C 541.6875 431.894531 550.074219 449.605469 539.523438 455.933594 " fill-opacity="1" fill-rule="nonzero"/><path fill="#000000" d="M 539.546875 465.277344 C 539.238281 465.277344 538.929688 465.160156 538.695312 464.925781 C 538.230469 464.453125 538.234375 463.695312 538.703125 463.230469 L 541.855469 460.105469 C 542.675781 459.292969 542.785156 458.019531 542.113281 457.082031 L 539.941406 454.054688 C 539.558594 453.515625 539.679688 452.769531 540.21875 452.382812 C 540.753906 452 541.5 452.121094 541.886719 452.660156 L 544.058594 455.683594 C 545.417969 457.582031 545.203125 460.160156 543.542969 461.804688 L 540.390625 464.929688 C 540.15625 465.160156 539.851562 465.277344 539.546875 465.277344 " fill-opacity="1" fill-rule="nonzero"/><path fill="#000000" d="M 514.167969 468.023438 C 513.625 468.023438 513.046875 467.960938 512.445312 467.8125 C 509.597656 467.105469 507.167969 464.695312 505.21875 460.660156 C 504.933594 460.066406 505.179688 459.351562 505.777344 459.0625 C 506.371094 458.777344 507.085938 459.023438 507.375 459.621094 C 508.988281 462.964844 510.878906 464.9375 512.992188 465.480469 C 515.210938 466.050781 516.960938 464.820312 517.03125 464.769531 C 517.566406 464.386719 518.3125 464.507812 518.699219 465.035156 C 519.085938 465.570312 518.972656 466.3125 518.445312 466.699219 C 518.355469 466.765625 516.617188 468.023438 514.167969 468.023438 " fill-opacity="1" fill-rule="nonzero"/><path fill="#ffffff" d="M 444.511719 406.1875 C 444.511719 406.1875 466.898438 412.933594 457.734375 434.40625 C 457.734375 434.40625 468.074219 426.941406 467.8125 415.289062 C 467.554688 403.636719 458.910156 399.839844 453.152344 399.972656 C 447.390625 400.101562 444.511719 406.1875 444.511719 406.1875 " fill-opacity="1" fill-rule="nonzero"/><path fill="#000000" d="M 446.277344 405.554688 C 449.285156 406.75 456.242188 410.152344 459.46875 417.050781 C 461.316406 421.003906 461.628906 425.4375 460.402344 430.277344 C 463.222656 427.171875 466.765625 421.921875 466.617188 415.316406 C 466.507812 410.507812 464.835938 406.644531 461.785156 404.136719 C 459.433594 402.207031 456.230469 401.113281 453.179688 401.167969 C 449.691406 401.246094 447.355469 403.953125 446.277344 405.554688 Z M 454.941406 437.890625 L 456.632812 433.933594 C 459.191406 427.941406 459.417969 422.605469 457.308594 418.078125 C 453.679688 410.300781 444.257812 407.367188 444.164062 407.335938 L 442.835938 406.933594 L 443.429688 405.675781 C 443.558594 405.398438 446.699219 398.921875 453.125 398.777344 C 456.777344 398.6875 460.480469 399.972656 463.304688 402.285156 C 465.820312 404.351562 468.855469 408.277344 469.011719 415.261719 C 469.285156 427.402344 458.875 435.054688 458.433594 435.375 L 454.941406 437.890625 " fill-opacity="1" fill-rule="nonzero"/><path fill="#ffffff" d="M 401.820312 589.742188 C 420.296875 600.910156 457.875 616.832031 518.347656 613.136719 C 522.796875 612.867188 526.90625 615.503906 528.476562 619.675781 L 532.246094 634.773438 C 538.882812 661.320312 551.355469 686.054688 568.761719 707.171875 L 577.796875 718.132812 C 579.1875 719.820312 577.875 722.351562 575.695312 722.1875 L 535.824219 719.261719 C 467.382812 710.207031 414.210938 675.878906 397.15625 613.34375 L 392.609375 596.660156 C 391.132812 591.25 397.019531 586.839844 401.820312 589.742188 " fill-opacity="1" fill-rule="nonzero"/><path fill="#000000" d="M 576.394531 723.433594 C 576.304688 723.433594 576.214844 723.433594 576.128906 723.425781 L 566.707031 722.730469 C 566.050781 722.683594 565.554688 722.109375 565.601562 721.449219 C 565.648438 720.792969 566.214844 720.292969 566.882812 720.34375 L 576.304688 721.035156 C 576.953125 721.089844 577.25 720.609375 577.328125 720.460938 C 577.402344 720.316406 577.617188 719.800781 577.203125 719.292969 L 567.835938 707.933594 C 550.429688 686.8125 537.722656 661.613281 531.085938 635.0625 L 527.332031 620.035156 C 525.925781 616.378906 522.355469 614.09375 518.421875 614.332031 C 456.605469 618.109375 418.445312 601.1875 401.203125 590.769531 C 399.046875 589.464844 396.878906 590.058594 395.566406 591.050781 C 394.261719 592.035156 393.105469 593.941406 393.761719 596.347656 L 398.3125 613.027344 C 413.390625 668.320312 458.933594 705.125 526.550781 716.648438 C 527.203125 716.757812 527.644531 717.382812 527.53125 718.03125 C 527.421875 718.683594 526.800781 719.121094 526.152344 719.011719 C 493.042969 713.367188 465.128906 701.855469 443.171875 684.804688 C 419.796875 666.648438 403.925781 642.710938 396 613.65625 L 391.453125 596.976562 C 390.640625 594 391.664062 590.996094 394.125 589.140625 C 396.597656 587.273438 399.78125 587.109375 402.441406 588.71875 C 419.445312 599 457.101562 615.679688 518.277344 611.945312 C 523.277344 611.628906 527.835938 614.574219 529.597656 619.253906 C 529.613281 619.296875 529.625 619.339844 529.636719 619.382812 L 533.410156 634.484375 C 539.957031 660.691406 552.5 685.566406 569.683594 706.414062 L 579.050781 717.773438 C 579.945312 718.859375 580.097656 720.3125 579.453125 721.558594 C 578.847656 722.734375 577.691406 723.433594 576.394531 723.433594 " fill-opacity="1" fill-rule="nonzero"/><path fill="#ffffff" d="M 777.980469 164.355469 L 909.273438 164.355469 C 916.703125 164.355469 922.394531 170.40625 922.394531 177.839844 L 922.394531 215.835938 C 922.394531 223.269531 916.703125 229.273438 909.273438 229.273438 C 909.207031 229.273438 907.207031 229.273438 904.527344 229.273438 L 904.527344 254.648438 L 887.25 229.273438 C 862.136719 229.273438 777.980469 229.273438 777.980469 229.273438 C 770.546875 229.273438 764.179688 223.269531 764.179688 215.835938 L 764.179688 177.839844 C 764.179688 170.40625 770.546875 164.355469 777.980469 164.355469 " fill-opacity="1" fill-rule="nonzero"/><path fill="#000000" d="M 777.980469 165.554688 C 771.148438 165.554688 765.375 171.183594 765.375 177.839844 L 765.375 215.839844 C 765.375 222.472656 771.148438 228.082031 777.980469 228.082031 L 887.246094 228.082031 C 887.644531 228.082031 888.015625 228.273438 888.242188 228.601562 L 903.328125 250.769531 L 903.328125 229.277344 C 903.328125 228.613281 903.863281 228.082031 904.523438 228.082031 L 909.273438 228.082031 C 915.957031 228.082031 921.191406 222.699219 921.191406 215.839844 L 921.191406 177.839844 C 921.191406 170.949219 915.957031 165.554688 909.273438 165.554688 Z M 904.523438 255.847656 C 904.136719 255.847656 903.761719 255.660156 903.535156 255.328125 L 886.617188 230.472656 L 777.980469 230.472656 C 769.847656 230.472656 762.984375 223.769531 762.984375 215.839844 L 762.984375 177.839844 C 762.984375 169.886719 769.847656 163.160156 777.980469 163.160156 L 909.273438 163.160156 C 917.304688 163.160156 923.585938 169.609375 923.585938 177.839844 L 923.585938 215.839844 C 923.585938 224.046875 917.304688 230.472656 909.273438 230.472656 L 905.722656 230.472656 L 905.722656 254.648438 C 905.722656 255.179688 905.378906 255.640625 904.875 255.796875 C 904.761719 255.828125 904.644531 255.847656 904.523438 255.847656 " fill-opacity="1" fill-rule="nonzero"/><path fill="#000000" d="M 827.285156 206.632812 C 827.121094 206.632812 826.949219 206.59375 826.792969 206.523438 L 808.707031 198.324219 C 808.285156 198.128906 808.003906 197.703125 808.003906 197.234375 C 808.003906 196.761719 808.277344 196.335938 808.703125 196.140625 L 826.792969 187.890625 C 827.394531 187.617188 828.101562 187.882812 828.375 188.480469 C 828.652344 189.085938 828.386719 189.796875 827.78125 190.066406 L 812.09375 197.226562 L 827.777344 204.34375 C 828.382812 204.617188 828.652344 205.324219 828.378906 205.925781 C 828.175781 206.371094 827.742188 206.632812 827.285156 206.632812 " fill-opacity="1" fill-rule="nonzero"/><path fill="#000000" d="M 853.191406 206.632812 C 852.730469 206.632812 852.296875 206.371094 852.09375 205.925781 C 851.824219 205.324219 852.09375 204.617188 852.695312 204.34375 L 868.378906 197.226562 L 852.695312 190.066406 C 852.089844 189.796875 851.824219 189.085938 852.097656 188.480469 C 852.371094 187.882812 853.085938 187.617188 853.683594 187.890625 L 871.769531 196.140625 C 872.195312 196.335938 872.46875 196.761719 872.464844 197.234375 C 872.464844 197.703125 872.195312 198.128906 871.765625 198.324219 L 853.683594 206.523438 C 853.523438 206.59375 853.355469 206.632812 853.191406 206.632812 " fill-opacity="1" fill-rule="nonzero"/><path fill="#000000" d="M 832.71875 216.261719 C 832.578125 216.261719 832.433594 216.230469 832.289062 216.175781 C 831.671875 215.945312 831.363281 215.25 831.597656 214.628906 L 845.675781 177.800781 C 845.917969 177.183594 846.609375 176.878906 847.222656 177.113281 C 847.839844 177.351562 848.144531 178.039062 847.914062 178.660156 L 833.835938 215.488281 C 833.652344 215.964844 833.203125 216.261719 832.71875 216.261719 " fill-opacity="1" fill-rule="nonzero"/><path fill="#000000" d="M 806.882812 660.441406 C 806.425781 660.441406 805.988281 660.179688 805.789062 659.730469 C 805.519531 659.128906 805.792969 658.421875 806.398438 658.152344 C 847.515625 639.9375 884.808594 610.421875 914.25 572.796875 C 914.660156 572.277344 915.410156 572.1875 915.929688 572.59375 C 916.453125 573 916.542969 573.753906 916.136719 574.273438 C 886.453125 612.207031 848.84375 641.96875 807.367188 660.339844 C 807.207031 660.410156 807.046875 660.441406 806.882812 660.441406 " fill-opacity="1" fill-rule="nonzero"/><path fill="#000000" d="M 802.933594 681.480469 C 802.453125 681.480469 802 681.1875 801.816406 680.714844 C 801.578125 680.101562 801.882812 679.40625 802.5 679.167969 C 842.058594 663.820312 877.5 639.488281 907.84375 606.839844 C 908.292969 606.351562 909.050781 606.328125 909.53125 606.777344 C 910.019531 607.226562 910.042969 607.988281 909.59375 608.472656 C 879.003906 641.382812 843.265625 665.917969 803.363281 681.398438 C 803.226562 681.453125 803.078125 681.480469 802.933594 681.480469 " fill-opacity="1" fill-rule="nonzero"/><path fill="#000000" d="M 628.386719 102.238281 C 627.839844 102.238281 627.347656 101.863281 627.21875 101.3125 C 627.070312 100.667969 627.472656 100.027344 628.117188 99.875 C 669.402344 90.359375 710.308594 89.71875 749.683594 97.980469 C 750.328125 98.117188 750.746094 98.746094 750.609375 99.398438 C 750.472656 100.042969 749.832031 100.457031 749.195312 100.320312 C 710.15625 92.132812 669.601562 92.765625 628.65625 102.210938 C 628.5625 102.230469 628.472656 102.238281 628.386719 102.238281 " fill-opacity="1" fill-rule="nonzero"/><path fill="#000000" d="M 764.929688 85.578125 C 764.828125 85.578125 764.730469 85.570312 764.628906 85.539062 C 730.984375 76.816406 695.769531 74.617188 659.964844 78.988281 C 659.304688 79.066406 658.710938 78.601562 658.628906 77.941406 C 658.550781 77.289062 659.019531 76.6875 659.671875 76.613281 C 695.78125 72.199219 731.292969 74.425781 765.226562 83.222656 C 765.867188 83.390625 766.25 84.042969 766.089844 84.683594 C 765.945312 85.222656 765.460938 85.578125 764.929688 85.578125 " fill-opacity="1" fill-rule="nonzero"/><path fill="#9c88db" d="M 782.203125 661.757812 C 782.203125 658.8125 784.589844 656.421875 787.539062 656.421875 C 790.488281 656.421875 792.878906 658.8125 792.878906 661.757812 C 792.878906 664.703125 790.488281 667.09375 787.539062 667.09375 C 784.589844 667.09375 782.203125 664.703125 782.203125 661.757812 " fill-opacity="1" fill-rule="nonzero"/><path fill="#000000" d="M 416.125 350.414062 C 415.828125 350.414062 415.53125 350.300781 415.300781 350.078125 C 414.820312 349.621094 414.804688 348.863281 415.261719 348.386719 L 418.199219 345.320312 C 418.65625 344.84375 419.414062 344.828125 419.890625 345.285156 C 420.367188 345.742188 420.386719 346.503906 419.925781 346.976562 L 416.992188 350.042969 C 416.757812 350.289062 416.441406 350.414062 416.125 350.414062 " fill-opacity="1" fill-rule="nonzero"/><path fill="#000000" d="M 405.851562 361.140625 C 405.550781 361.140625 405.253906 361.03125 405.019531 360.808594 C 404.542969 360.351562 404.527344 359.59375 404.984375 359.117188 L 407.921875 356.050781 C 408.378906 355.570312 409.136719 355.554688 409.613281 356.011719 C 410.089844 356.472656 410.105469 357.230469 409.648438 357.707031 L 406.714844 360.773438 C 406.476562 361.019531 406.164062 361.140625 405.851562 361.140625 " fill-opacity="1" fill-rule="nonzero"/><path fill="#000000" d="M 408.730469 350.578125 C 408.425781 350.578125 408.125 350.460938 407.890625 350.230469 L 404.910156 347.296875 C 404.4375 346.835938 404.433594 346.078125 404.894531 345.605469 C 405.359375 345.132812 406.121094 345.128906 406.589844 345.59375 L 409.570312 348.523438 C 410.042969 348.988281 410.046875 349.746094 409.582031 350.21875 C 409.347656 350.457031 409.039062 350.578125 408.730469 350.578125 " fill-opacity="1" fill-rule="nonzero"/><path fill="#000000" d="M 419.164062 360.84375 C 418.859375 360.84375 418.558594 360.730469 418.324219 360.503906 L 415.34375 357.566406 C 414.871094 357.101562 414.867188 356.34375 415.328125 355.875 C 415.792969 355.402344 416.550781 355.394531 417.023438 355.859375 L 420.003906 358.796875 C 420.472656 359.257812 420.480469 360.015625 420.015625 360.488281 C 419.78125 360.726562 419.472656 360.84375 419.164062 360.84375 " fill-opacity="1" fill-rule="nonzero"/><path fill="#000000" d="M 778.230469 85.203125 L 778.238281 85.203125 Z M 781.101562 85.785156 C 780.292969 85.785156 779.484375 85.953125 778.71875 86.296875 C 775.714844 87.648438 774.351562 91.25 775.675781 94.320312 C 776.324219 95.820312 777.503906 96.96875 779 97.550781 C 780.460938 98.121094 782.058594 98.078125 783.488281 97.4375 C 786.492188 96.085938 787.863281 92.484375 786.535156 89.40625 C 785.886719 87.90625 784.710938 86.761719 783.207031 86.179688 C 782.527344 85.917969 781.8125 85.785156 781.101562 85.785156 Z M 781.109375 100.34375 C 780.101562 100.34375 779.097656 100.160156 778.128906 99.78125 C 776.035156 98.964844 774.378906 97.367188 773.476562 95.269531 C 771.632812 91.003906 773.546875 85.996094 777.742188 84.113281 C 779.761719 83.203125 782.015625 83.144531 784.078125 83.949219 C 786.175781 84.765625 787.828125 86.363281 788.730469 88.460938 C 790.574219 92.730469 788.664062 97.734375 784.46875 99.617188 C 783.390625 100.101562 782.25 100.34375 781.109375 100.34375 " fill-opacity="1" fill-rule="nonzero"/></svg>